<svg width="1408" height="584" viewBox="0 0 1408 584" fill="none" xmlns="http://www.w3.org/2000/svg">
<g clip-path="url(#clip0_11_83)">
<rect width="1408" height="584" rx="6" fill="#FAFAFA"/>
<g opacity="0.1">
<path d="M704 51.1956L1182.33 729.443L1232.38 655.013L850.233 119.298H1072.16L1100.03 51.1956H704Z" stroke="#292524" stroke-width="1.31"/>
<path d="M1425.56 116.123H1594.6L1182.33 729.443H1280.86L1746.06 48H1356.6L1182.33 320.535L1229.72 412.339L1425.56 116.123Z" stroke="#292524" stroke-width="1.31"/>
<path d="M1494.52 172.226L1229.73 578.298L1232.38 655.013L1594.6 116.123H1425.56L1388.6 172.014L1494.52 172.226Z" stroke="#292524" stroke-width="1.31"/>
<path d="M1115.25 264.411L1182.33 168.036L1100.03 51.1956L1072.16 119.298H1021.1L1115.25 264.411Z" stroke="#292524" stroke-width="1.31"/>
<path d="M951.751 172.543L1229.73 578.298L1232.38 655.013L850.233 119.298H1021.1L1055.63 172.543H951.751Z" stroke="#292524" stroke-width="1.31"/>
<path d="M1182.33 320.535L1160.26 359.326L1209.84 449.586L1229.73 412.339L1182.33 320.535Z" stroke="#292524" stroke-width="1.31"/>
</g>
</g>
<defs>
<clipPath id="clip0_11_83">
<rect width="1408" height="584" rx="6" fill="white"/>
</clipPath>
</defs>
</svg>
