<svg width="1440" height="560" viewBox="0 0 1440 560" fill="none" xmlns="http://www.w3.org/2000/svg">
<g clip-path="url(#clip0_25_5)">
<path d="M18.5447 -16.0066L-424.966 649.26" stroke="#745915" stroke-width="0.5"/>
<path d="M49.3223 -16.0066L-394.189 649.26" stroke="#745915" stroke-width="0.5"/>
<path d="M80.0999 -16.0066L-363.411 649.26" stroke="#745915" stroke-width="0.5"/>
<path d="M110.877 -16.0066L-332.634 649.26" stroke="#745915" stroke-width="0.5"/>
<path d="M141.655 -16.0066L-301.856 649.26" stroke="#745915" stroke-width="0.5"/>
<path d="M172.433 -16.0066L-271.079 649.26" stroke="#745915" stroke-width="0.5"/>
<path d="M203.21 -16.0066L-240.301 649.26" stroke="#745915" stroke-width="0.5"/>
<path d="M233.988 -16.0066L-209.523 649.26" stroke="#745915" stroke-width="0.5"/>
<path d="M264.765 -16.0066L-178.746 649.26" stroke="#745915" stroke-width="0.5"/>
<path d="M295.543 -16.0066L-147.968 649.26" stroke="#745915" stroke-width="0.5"/>
<path d="M326.32 -16.0066L-117.191 649.26" stroke="#745915" stroke-width="0.5"/>
<path d="M357.097 -16.0066L-86.4137 649.26" stroke="#745915" stroke-width="0.5"/>
<path d="M387.875 -16.0066L-55.6359 649.26" stroke="#745915" stroke-width="0.5"/>
<path d="M418.652 -16.0066L-24.8588 649.26" stroke="#745915" stroke-width="0.5"/>
<path d="M449.43 -16.0066L5.9193 649.26" stroke="#745915" stroke-width="0.5"/>
<path d="M480.207 -16.0066L36.6962 649.26" stroke="#745915" stroke-width="0.5"/>
<path d="M510.985 -16.0066L67.4742 649.26" stroke="#745915" stroke-width="0.5"/>
<path d="M541.763 -16.0066L98.2521 649.26" stroke="#745915" stroke-width="0.5"/>
<path d="M572.541 -16.0066L129.03 649.26" stroke="#745915" stroke-width="0.5"/>
<path d="M603.319 -16.0066L159.807 649.26" stroke="#745915" stroke-width="0.5"/>
<path d="M634.096 -16.0066L190.585 649.26" stroke="#745915" stroke-width="0.5"/>
<path d="M664.873 -16.0066L221.362 649.26" stroke="#745915" stroke-width="0.5"/>
<path d="M695.651 -16.0066L252.14 649.26" stroke="#745915" stroke-width="0.5"/>
<path d="M726.428 -16.0066L282.917 649.26" stroke="#745915" stroke-width="0.5"/>
<path d="M757.206 -16.0066L313.695 649.26" stroke="#745915" stroke-width="0.5"/>
<path d="M787.984 -16.0066L344.473 649.26" stroke="#745915" stroke-width="0.5"/>
<path d="M821.318 -16.0066L377.807 649.26" stroke="#745915" stroke-width="0.5"/>
<path d="M852.096 -16.0066L408.585 649.26" stroke="#745915" stroke-width="0.5"/>
<path d="M882.873 -16.0066L439.362 649.26" stroke="#745915" stroke-width="0.5"/>
<path d="M913.651 -16.0066L470.14 649.26" stroke="#745915" stroke-width="0.5"/>
<path d="M944.428 -16.0066L500.917 649.26" stroke="#745915" stroke-width="0.5"/>
<path d="M975.206 -16.0066L531.695 649.26" stroke="#745915" stroke-width="0.5"/>
<path d="M1005.98 -16.0066L562.472 649.26" stroke="#745915" stroke-width="0.5"/>
<rect x="-701.965" y="-16.0066" width="1707.95" height="665.267" fill="url(#paint0_linear_25_5)"/>
<path d="M1416.91 -16.0066L1860.42 649.26" stroke="#745915" stroke-width="0.5"/>
<path d="M1386.14 -16.0066L1829.65 649.26" stroke="#745915" stroke-width="0.5"/>
<path d="M1355.36 -16.0066L1798.87 649.26" stroke="#745915" stroke-width="0.5"/>
<path d="M1324.58 -16.0066L1768.09 649.26" stroke="#745915" stroke-width="0.5"/>
<path d="M1293.8 -16.0066L1737.31 649.26" stroke="#745915" stroke-width="0.5"/>
<path d="M1263.03 -16.0066L1706.54 649.26" stroke="#745915" stroke-width="0.5"/>
<path d="M1232.25 -16.0066L1675.76 649.26" stroke="#745915" stroke-width="0.5"/>
<path d="M1201.47 -16.0066L1644.98 649.26" stroke="#745915" stroke-width="0.5"/>
<path d="M1170.69 -16.0066L1614.2 649.26" stroke="#745915" stroke-width="0.5"/>
<path d="M1139.92 -16.0066L1583.43 649.26" stroke="#745915" stroke-width="0.5"/>
<path d="M1109.14 -16.0066L1552.65 649.26" stroke="#745915" stroke-width="0.5"/>
<path d="M1078.36 -16.0066L1521.87 649.26" stroke="#745915" stroke-width="0.5"/>
<path d="M1047.58 -16.0066L1491.09 649.26" stroke="#745915" stroke-width="0.5"/>
<path d="M1016.81 -16.0066L1460.32 649.26" stroke="#745915" stroke-width="0.5"/>
<path d="M986.028 -16.0066L1429.54 649.26" stroke="#745915" stroke-width="0.5"/>
<path d="M955.25 -16.0066L1398.76 649.26" stroke="#745915" stroke-width="0.5"/>
<path d="M924.472 -16.0066L1367.98 649.26" stroke="#745915" stroke-width="0.5"/>
<path d="M893.695 -16.0066L1337.21 649.26" stroke="#745915" stroke-width="0.5"/>
<path d="M862.918 -16.0066L1306.43 649.26" stroke="#745915" stroke-width="0.5"/>
<path d="M832.14 -16.0066L1275.65 649.26" stroke="#745915" stroke-width="0.5"/>
<path d="M801.363 -16.0066L1244.87 649.26" stroke="#745915" stroke-width="0.5"/>
<path d="M770.584 -16.0066L1214.1 649.26" stroke="#745915" stroke-width="0.5"/>
<path d="M739.807 -16.0066L1183.32 649.26" stroke="#745915" stroke-width="0.5"/>
<path d="M706.472 -16.0066L1149.98 649.26" stroke="#745915" stroke-width="0.5"/>
<path d="M675.695 -16.0066L1119.21 649.26" stroke="#745915" stroke-width="0.5"/>
<path d="M644.918 -16.0066L1088.43 649.26" stroke="#745915" stroke-width="0.5"/>
<path d="M614.14 -16.0066L1057.65 649.26" stroke="#745915" stroke-width="0.5"/>
<path d="M583.363 -16.0066L1026.87 649.26" stroke="#745915" stroke-width="0.5"/>
<path d="M552.585 -16.0066L996.096 649.26" stroke="#745915" stroke-width="0.5"/>
<path d="M521.807 -16.0066L965.318 649.26" stroke="#745915" stroke-width="0.5"/>
<rect width="1707.95" height="665.267" transform="matrix(-1 0 3.31782e-08 1 2229.76 -16.0066)" fill="url(#paint1_linear_25_5)"/>
</g>
<defs>
<linearGradient id="paint0_linear_25_5" x1="1005.98" y1="316.627" x2="-701.965" y2="316.627" gradientUnits="userSpaceOnUse">
<stop offset="0.144231" stop-color="#171412"/>
<stop offset="1" stop-color="#171412" stop-opacity="0"/>
</linearGradient>
<linearGradient id="paint1_linear_25_5" x1="1707.95" y1="332.633" x2="1.68204e-05" y2="332.633" gradientUnits="userSpaceOnUse">
<stop offset="0.144231" stop-color="#171412"/>
<stop offset="1" stop-color="#171412" stop-opacity="0"/>
</linearGradient>
<clipPath id="clip0_25_5">
<rect width="1440" height="560" fill="white"/>
</clipPath>
</defs>
</svg>
