<svg width="1408" height="50" viewBox="0 0 1408 50" fill="none" xmlns="http://www.w3.org/2000/svg">
<path d="M0 20.9277H647.058" stroke="#FAE09E"/>
<path d="M0 28.9277H663.058" stroke="#FAE09E"/>
<path d="M672.058 1.15283L701.382 48.9277L704.45 43.685L681.023 5.94985H694.628L696.336 1.15283H672.058Z" stroke="#FAE09E"/>
<path d="M716.294 5.72624H726.657L701.382 48.9277H707.423L735.942 0.927734H712.066L701.382 20.1248L704.288 26.5913L716.294 5.72624Z" stroke="#FAE09E"/>
<path d="M720.521 9.67812L704.288 38.2813L704.45 43.6851L726.657 5.72632H716.294L714.028 9.66321L720.521 9.67812Z" stroke="#FAE09E"/>
<path d="M697.269 16.1715L701.382 9.38289L696.336 1.15283L694.628 5.94985H691.498L697.269 16.1715Z" stroke="#FAE09E"/>
<path d="M687.246 9.70051L704.288 38.2814L704.45 43.6851L681.023 5.94995H691.498L693.614 9.70051H687.246Z" stroke="#FAE09E"/>
<path d="M701.382 20.1248L700.029 22.8572L703.068 29.2149L704.288 26.5913L701.382 20.1248Z" stroke="#FAE09E"/>
<path d="M760.942 20.9277H1408" stroke="#FAE09E"/>
<path d="M744.942 28.9277H1408" stroke="#FAE09E"/>
</svg>
