<svg width="395" height="50" viewBox="0 0 395 50" fill="none" xmlns="http://www.w3.org/2000/svg">
<path d="M-506 20.9277H141.058" stroke="#292524"/>
<path d="M-506 28.9277H157.058" stroke="#292524"/>
<path d="M166.058 1.15283L195.382 48.9277L198.45 43.685L175.023 5.94985H188.628L190.336 1.15283H166.058Z" stroke="#292524"/>
<path d="M210.294 5.72624H220.657L195.382 48.9277H201.423L229.942 0.927734H206.066L195.382 20.1248L198.288 26.5913L210.294 5.72624Z" stroke="#292524"/>
<path d="M214.521 9.67788L198.288 38.2811L198.45 43.6848L220.657 5.72607H210.294L208.028 9.66297L214.521 9.67788Z" stroke="#292524"/>
<path d="M191.269 16.1715L195.382 9.38289L190.336 1.15283L188.628 5.94985H185.498L191.269 16.1715Z" stroke="#292524"/>
<path d="M181.246 9.70027L198.288 38.2811L198.45 43.6849L175.023 5.94971H185.498L187.614 9.70027H181.246Z" stroke="#292524"/>
<path d="M195.382 20.125L194.029 22.8574L197.068 29.2152L198.288 26.5916L195.382 20.125Z" stroke="#292524"/>
<path d="M254.942 20.9277H902" stroke="#292524"/>
<path d="M238.942 28.9277H902" stroke="#292524"/>
</svg>
