<svg width="1408" height="50" viewBox="0 0 1408 50" fill="none" xmlns="http://www.w3.org/2000/svg">
<path d="M0 20.9277H647.058" stroke="#292524"/>
<path d="M0 28.9277H663.058" stroke="#292524"/>
<path d="M672.058 1.15283L701.382 48.9277L704.45 43.685L681.023 5.94985H694.628L696.336 1.15283H672.058Z" stroke="#292524"/>
<path d="M716.294 5.72624H726.657L701.382 48.9277H707.423L735.942 0.927734H712.066L701.382 20.1248L704.288 26.5913L716.294 5.72624Z" stroke="#292524"/>
<path d="M720.521 9.67788L704.288 38.2811L704.45 43.6848L726.657 5.72607H716.294L714.028 9.66297L720.521 9.67788Z" stroke="#292524"/>
<path d="M697.269 16.1715L701.382 9.38289L696.336 1.15283L694.628 5.94985H691.498L697.269 16.1715Z" stroke="#292524"/>
<path d="M687.246 9.70027L704.288 38.2811L704.45 43.6849L681.023 5.94971H691.498L693.614 9.70027H687.246Z" stroke="#292524"/>
<path d="M701.382 20.1245L700.029 22.8569L703.068 29.2147L704.288 26.5911L701.382 20.1245Z" stroke="#292524"/>
<path d="M760.942 20.9277H1408" stroke="#292524"/>
<path d="M744.942 28.9277H1408" stroke="#292524"/>
</svg>
