<svg width="395" height="50" viewBox="0 0 395 50" fill="none" xmlns="http://www.w3.org/2000/svg">
<path d="M16 20.9277H140.558" stroke="#FAE09E"/>
<path d="M16 28.9277H679.058" stroke="#FAE09E"/>
<path d="M165.558 1.15283L194.882 48.9277L197.95 43.685L174.523 5.94985H188.128L189.836 1.15283H165.558Z" stroke="#FAE09E"/>
<path d="M209.794 5.72624H220.157L194.882 48.9277H200.923L229.442 0.927734H205.566L194.882 20.1248L197.788 26.5913L209.794 5.72624Z" stroke="#FAE09E"/>
<path d="M214.021 9.67812L197.788 38.2813L197.95 43.6851L220.157 5.72632H209.794L207.528 9.66321L214.021 9.67812Z" stroke="#FAE09E"/>
<path d="M190.769 16.1715L194.882 9.38289L189.836 1.15283L188.128 5.94985H184.998L190.769 16.1715Z" stroke="#FAE09E"/>
<path d="M180.746 9.70051L197.788 38.2814L197.95 43.6851L174.523 5.94995H184.998L187.114 9.70051H180.746Z" stroke="#FAE09E"/>
<path d="M194.882 20.1248L193.529 22.8572L196.568 29.2149L197.788 26.5913L194.882 20.1248Z" stroke="#FAE09E"/>
<path d="M254.442 20.9277H379" stroke="#FAE09E"/>
<path d="M-284.058 28.9277H379" stroke="#FAE09E"/>
</svg>
