<svg width="557" height="425" viewBox="0 0 557 425" fill="none" xmlns="http://www.w3.org/2000/svg">
<g clip-path="url(#clip0_3_60)">
<path d="M196.99 385.92C201.96 405.77 232.43 396.82 239.24 413.8C239.7 414.96 241.93 422.96 240.05 422.96H220.07C215.41 418.19 210.87 413.3 206.34 408.4C201.18 402.82 194 396.58 191.97 388.79C191.71 387.8 190.67 381.64 192 381.64H206.27C207.38 381.64 212.1 380.59 213.38 380.19C225.76 376.34 223.28 355.07 210.9 352.33C201.59 351.37 192.1 351.26 182.72 351.25L182.48 422.96H168.44V346.97C170.65 347.34 172.77 346.58 174.84 346.48C186.41 345.88 213.72 345.14 223.75 348.99C235.81 353.62 243.2 365.59 233.87 376.91C230.31 381.23 220.92 385.92 215.3 385.92H196.98H196.99Z" fill="#D1A027"/>
<path d="M419.67 347.22C420 346.18 423.31 346.62 424.42 346.03L424.91 348.17C425.27 371.91 424.44 395.7 424.88 419.43C424.89 420.22 425.71 422.97 424.67 422.97H413.73C398.15 407.78 383.24 391.99 367.84 376.63C362.84 371.64 356.17 366.06 351.64 360.52C351.15 359.92 350.44 359.19 349.74 358.86V422.97C348.08 423.02 343.91 423.73 343.55 421.78C343.12 419.47 343.47 413.98 343.53 411.31C343.99 392.38 344.21 373.33 344.04 354.33C344.52 351.99 339.05 348.82 338.8 347.68C338.35 345.63 342.55 346.9 343.32 346.88C347.2 346.77 358.11 345.55 361.13 347.26C379.27 365.4 397.7 383.27 416.31 400.92C417.32 401.88 418.02 403.91 419.69 403.96V347.21L419.67 347.22Z" fill="#D1A027"/>
<path d="M262.89 346.5C264.57 346.96 263.59 348.98 263.58 350.04C263.5 362.76 263.13 378.41 264.08 390.9C265.6 410.94 283.61 428.84 303.71 417.17C327.64 403.27 317.12 370.22 319.72 348.14C319.78 347.66 319.94 346.5 320.46 346.5H333.31C333.36 346.5 334.02 347.16 334.02 347.21V391.38C334.02 394.58 329.28 404.12 327.28 406.97C306.31 436.8 250.81 426.45 247.91 389.47C247.05 378.52 246.33 359.77 247.4 349.08C247.47 348.38 247.77 346.5 248.62 346.5C251.64 346.5 260.75 345.91 262.89 346.5Z" fill="#D1A027"/>
<path d="M556.7 422.96H538.86L526.02 401.11L524.61 400.61L478.98 400.71L466.06 422.49C464.88 423.55 461.31 422.69 459.63 422.96C459.54 421.93 459.97 421.06 460.39 420.16C462.97 414.65 468.09 406.71 471.33 401.16C480.17 386.02 489.77 371.27 498.43 356.01C498.73 355.33 498.72 354.69 498.54 353.98C498.38 353.35 493.14 346.49 495.55 346.49H511.25C511.49 346.49 512.39 347.19 512.63 347.49C523.71 367.39 536.01 386.57 547.56 406.19C549.97 410.29 554.46 416.88 556.16 420.87C556.46 421.57 556.83 422.13 556.69 422.95L556.7 422.96ZM521.97 394.94L502.23 361.22L482.48 394.94H521.97Z" fill="#D1A027"/>
<path d="M111.34 352.2C111.49 352.67 110.86 353.23 110.86 353.39V380.46C110.86 380.51 111.52 381.17 111.57 381.17H152.49C153.55 381.17 153.55 386.87 152.49 386.87H111.33V417.26H156.29C157.02 417.26 157.76 422.96 156.77 422.96H95.87L95.85 346.95C96.33 346.18 98.08 347.08 99.2 347.02C117.82 345.99 136.63 346.7 155.33 346.51C157.75 346.41 157.31 352.2 156.3 352.2H111.34Z" fill="#D1A027"/>
<path d="M452.02 346.5V421.3C452.02 421.52 453.37 422.39 453.45 422.73C453.87 424.65 451.51 423.05 450.81 422.98C447.35 422.64 442.56 423.53 439.42 422.96C439.02 422.89 438.23 422.58 438.23 422.25V347.69C438.23 347.61 439.34 346.5 439.42 346.5H452.03H452.02Z" fill="#D1A027"/>
<path d="M16.89 347.45H0L44.48 422.01L88.5 347.45L83.7 347.75L50.2 403.96C49.48 404.14 47.25 400.22 46.73 399.36C37.56 384.3 29.81 368.26 20.65 353.2C19.48 351.28 17.94 349.48 16.89 347.45Z" fill="#D1A027"/>
<path d="M61.07 1.51001L257.79 322L278.37 286.83L121.21 33.69H212.48L223.94 1.51001H61.07Z" fill="url(#paint0_linear_3_60)"/>
<path d="M357.82 32.19H427.34L257.79 322H298.31L489.63 0H329.46L257.79 128.78L277.28 172.16L357.82 32.19Z" fill="url(#paint1_linear_3_60)"/>
<path d="M386.18 58.7L277.28 250.58L278.37 286.83L427.34 32.19H357.82L342.62 58.6L386.18 58.7Z" fill="url(#paint2_linear_3_60)"/>
<path d="M230.2 102.26L257.79 56.72L223.94 1.51001L212.48 33.69H191.48L230.2 102.26Z" fill="url(#paint3_linear_3_60)"/>
<path d="M162.96 58.85L277.28 250.58L278.37 286.83L121.21 33.69H191.48L205.68 58.85H162.96Z" fill="url(#paint4_linear_3_60)"/>
<path d="M257.79 128.78L248.71 147.11L269.1 189.76L277.28 172.16L257.79 128.78Z" fill="url(#paint5_linear_3_60)"/>
<g opacity="0.09">
<path d="M223.23 2.01001L212.13 33.2H120.32L120.79 33.96L277.79 286.84L257.79 321.02L61.96 2.01001H223.22M223.94 1.51001H61.07L257.79 322L278.36 286.84L121.21 33.69H212.48L223.94 1.51001Z" fill="black"/>
</g>
<g opacity="0.09">
<path d="M488.75 0.5L298.02 321.5H258.66L427.77 32.44L428.21 31.69H357.53L357.39 31.94L277.33 171.06L258.35 128.8L329.75 0.5H488.75ZM489.63 0H329.45L257.79 128.78L277.27 172.16L357.81 32.19H427.33L257.78 322H298.29L489.63 0Z" fill="black"/>
</g>
<g opacity="0.09">
<path d="M426.47 32.69L278.81 285.08L277.78 250.7L386.62 58.94L387.04 58.2H386.18L343.48 58.1L358.1 32.69H426.46M427.34 32.19H357.82L342.62 58.6L386.18 58.7L277.27 250.58L278.36 286.84L427.34 32.19Z" fill="black"/>
</g>
<g opacity="0.09">
<path d="M224.06 2.66001L257.21 56.73L230.22 101.27L192.34 34.19H212.84L212.96 33.86L224.07 2.66001M223.94 1.51001L212.48 33.7H191.48L230.21 102.27L257.8 56.74L223.94 1.51001Z" fill="black"/>
</g>
<g opacity="0.09">
<path d="M191.18 34.19L204.82 58.34H162.96H162.08L162.53 59.1L276.78 250.71L277.81 284.98L122.11 34.19H191.18ZM191.48 33.69H121.21L278.37 286.83L277.28 250.57L162.96 58.85H205.68L191.47 33.69H191.48Z" fill="black"/>
</g>
<g opacity="0.09">
<path d="M257.77 129.95L276.72 172.16L269.09 188.6L249.25 147.13L257.76 129.96M257.79 128.78L248.7 147.12L269.1 189.77L277.27 172.16L257.79 128.78Z" fill="black"/>
</g>
</g>
<defs>
<linearGradient id="paint0_linear_3_60" x1="10.93" y1="17.12" x2="420.97" y2="275.04" gradientUnits="userSpaceOnUse">
<stop stop-color="#EDB63B"/>
<stop offset="0.3" stop-color="#8C5814"/>
<stop offset="0.55" stop-color="#EDB63B"/>
<stop offset="0.85" stop-color="#8C5814"/>
</linearGradient>
<linearGradient id="paint1_linear_3_60" x1="218.02" y1="52.91" x2="985.84" y2="585.96" gradientUnits="userSpaceOnUse">
<stop stop-color="#EDB63B"/>
<stop offset="0.3" stop-color="#8C5814"/>
<stop offset="0.55" stop-color="#EDB63B"/>
<stop offset="0.85" stop-color="#8C5814"/>
</linearGradient>
<linearGradient id="paint2_linear_3_60" x1="312.06" y1="-20.17" x2="374.22" y2="253.63" gradientUnits="userSpaceOnUse">
<stop stop-color="#EDB63B"/>
<stop offset="0.3" stop-color="#8C5814"/>
<stop offset="0.55" stop-color="#EDB63B"/>
</linearGradient>
<linearGradient id="paint3_linear_3_60" x1="94.95" y1="-70.31" x2="376.69" y2="190.26" gradientUnits="userSpaceOnUse">
<stop stop-color="#EDB63B"/>
<stop offset="0.3" stop-color="#8C5814"/>
<stop offset="0.55" stop-color="#EDB63B"/>
<stop offset="0.85" stop-color="#8C5814"/>
</linearGradient>
<linearGradient id="paint4_linear_3_60" x1="88.16" y1="-144.21" x2="417.51" y2="689.09" gradientUnits="userSpaceOnUse">
<stop stop-color="#EDB63B"/>
<stop offset="0.3" stop-color="#8C5814"/>
<stop offset="0.55" stop-color="#EDB63B"/>
<stop offset="0.85" stop-color="#8C5814"/>
</linearGradient>
<linearGradient id="paint5_linear_3_60" x1="250.35" y1="-13.17" x2="270.19" y2="257.98" gradientUnits="userSpaceOnUse">
<stop stop-color="#EDB63B"/>
<stop offset="0.3" stop-color="#8C5814"/>
<stop offset="0.55" stop-color="#EDB63B"/>
<stop offset="0.85" stop-color="#8C5814"/>
</linearGradient>
<clipPath id="clip0_3_60">
<rect width="556.73" height="424.35" fill="white"/>
</clipPath>
</defs>
</svg>
