<svg width="1376" height="194" viewBox="0 0 1376 194" fill="none" xmlns="http://www.w3.org/2000/svg">
<path d="M486.608 98.6242C498.885 147.658 574.152 125.549 590.974 167.494C592.11 170.359 597.619 190.121 592.975 190.121H543.62C532.109 178.338 520.894 166.259 509.704 154.155C496.958 140.371 479.222 124.957 474.207 105.714C473.565 103.268 470.996 88.0517 474.281 88.0517H509.531C512.273 88.0517 523.932 85.4579 527.094 84.4698C557.676 74.9595 551.549 22.418 520.968 15.6496C497.971 13.2782 474.528 13.0065 451.358 12.9818L450.765 190.121H416.083V2.40931C421.542 3.32329 426.779 1.44596 431.892 1.19893C460.473 -0.283195 527.934 -2.1112 552.71 7.39912C582.501 18.8362 600.756 48.4047 577.709 76.3675C568.915 87.0388 545.72 98.6242 531.837 98.6242H486.583H486.608Z" fill="#F5C547"/>
<path d="M1036.67 3.02684C1037.49 0.457818 1045.67 1.54471 1048.41 0.0872803L1049.62 5.37357C1050.51 64.0165 1048.46 122.783 1049.54 181.401C1049.57 183.352 1051.6 190.146 1049.03 190.146H1022C983.516 152.623 946.685 113.618 908.644 75.6758C896.293 63.3495 879.816 49.5656 868.626 35.8807C867.416 34.3985 865.662 32.5953 863.933 31.7801V190.146C859.832 190.269 849.532 192.023 848.642 187.206C847.58 181.5 848.445 167.938 848.593 161.343C849.729 114.582 850.273 67.5241 849.853 20.59C851.038 14.8097 837.526 6.97916 836.909 4.16312C835.797 -0.90082 846.172 2.23638 848.074 2.18698C857.659 1.91525 884.609 -1.0984 892.069 3.12567C936.878 47.9353 982.404 92.0781 1028.38 135.677C1030.87 138.049 1032.6 143.063 1036.72 143.187V3.00211L1036.67 3.02684Z" fill="#F5C547"/>
<path d="M649.395 1.24821C653.544 2.38451 651.124 7.37436 651.099 9.99279C650.901 41.4139 649.987 80.0727 652.334 110.926C656.089 160.429 700.577 204.646 750.229 175.818C809.341 141.482 783.354 59.8417 789.777 5.2994C789.925 4.11369 790.32 1.24821 791.605 1.24821H823.347C823.47 1.24821 825.101 2.87853 825.101 3.00204V112.111C825.101 120.016 813.392 143.582 808.452 150.622C756.651 224.309 619.554 198.742 612.391 107.393C610.266 80.3445 608.488 34.0279 611.131 7.62133C611.304 5.89218 612.045 1.24821 614.145 1.24821C621.605 1.24821 644.108 -0.209217 649.395 1.24821Z" fill="#F5C547"/>
<path d="M1375.17 190.121H1331.1L1299.38 136.147L1295.9 134.911L1183.18 135.159L1151.27 188.96C1148.35 191.578 1139.53 189.454 1135.38 190.121C1135.16 187.576 1136.22 185.427 1137.26 183.204C1143.63 169.593 1156.28 149.98 1164.29 136.27C1186.12 98.8711 1209.84 62.4355 1231.23 24.74C1231.97 23.0602 1231.94 21.4793 1231.5 19.7255C1231.11 18.1692 1218.16 1.22351 1224.11 1.22351H1262.9C1263.49 1.22351 1265.71 2.95266 1266.31 3.69372C1293.68 52.851 1324.06 100.23 1352.59 148.695C1358.54 158.823 1369.63 175.102 1373.83 184.958C1374.57 186.687 1375.49 188.071 1375.14 190.096L1375.17 190.121ZM1289.38 120.905L1240.62 37.6098L1191.83 120.905H1289.38Z" fill="#F5C547"/>
<path d="M275.034 15.3286C275.404 16.4896 273.848 17.8729 273.848 18.2681V85.1368C273.848 85.2603 275.478 86.8907 275.602 86.8907H376.683C379.301 86.8907 379.301 100.971 376.683 100.971H275.009V176.041H386.07C387.873 176.041 389.701 190.121 387.255 190.121H236.819L236.77 2.35995C237.956 0.457883 242.279 2.68102 245.045 2.53281C291.041 -0.0115151 337.505 1.74239 383.698 1.27305C389.676 1.02603 388.589 15.3286 386.094 15.3286H275.034Z" fill="#F5C547"/>
<path d="M1116.59 1.24811V186.02C1116.59 186.564 1119.92 188.713 1120.12 189.553C1121.16 194.295 1115.33 190.343 1113.6 190.17C1105.05 189.33 1093.22 191.529 1085.46 190.121C1084.47 189.948 1082.52 189.182 1082.52 188.367V4.18767C1082.52 3.99005 1085.26 1.24811 1085.46 1.24811H1116.61H1116.59Z" fill="#F5C547"/>
<path d="M41.7219 3.59509H0L109.875 187.774L218.614 3.59509L206.757 4.33613L124.005 143.187C122.226 143.631 116.718 133.948 115.433 131.824C92.7812 94.6224 73.6371 55.0002 51.0099 17.7988C48.1198 13.056 44.3156 8.60963 41.7219 3.59509Z" fill="#F5C547"/>
</svg>
