<svg width="1400" height="198" viewBox="0 0 1400 198" fill="none" xmlns="http://www.w3.org/2000/svg">
<path d="M495.376 100.401C507.874 150.319 584.498 127.812 601.623 170.512C602.78 173.429 608.388 193.547 603.66 193.547H553.416C541.697 181.552 530.28 169.255 518.889 156.932C505.913 142.9 487.857 127.208 482.752 107.619C482.098 105.129 479.483 89.6383 482.827 89.6383H518.713C521.504 89.6383 533.373 86.9978 536.592 85.992C567.725 76.3102 561.488 22.822 530.356 15.9316C506.944 13.5175 483.079 13.2409 459.491 13.2158L458.887 193.547H423.581V2.45273C429.138 3.38318 434.469 1.47201 439.675 1.22054C468.77 -0.288298 537.447 -2.14925 562.67 7.53245C592.998 19.1756 611.581 49.2769 588.119 77.7437C579.167 88.6073 555.553 100.401 541.421 100.401H495.351H495.376Z" fill="#FDFDFC"/>
<path d="M1055.36 3.08091C1056.19 0.465594 1064.51 1.57207 1067.3 0.0883789L1068.53 5.46993C1069.44 65.1695 1067.35 124.995 1068.46 184.669C1068.48 186.656 1070.54 193.571 1067.93 193.571H1040.42C1001.24 155.373 963.744 115.665 925.017 77.039C912.444 64.4905 895.67 50.4583 884.279 36.5267C883.046 35.0179 881.261 33.1822 879.501 32.3523V193.571C875.326 193.697 864.84 195.483 863.934 190.579C862.853 184.77 863.733 170.964 863.884 164.25C865.041 116.646 865.594 68.7404 865.167 20.9606C866.374 15.0761 852.618 7.10445 851.99 4.23766C850.858 -0.917527 861.42 2.27621 863.356 2.22591C873.113 1.94929 900.549 -1.11866 908.143 3.18152C953.761 48.7987 1000.11 93.7368 1046.91 138.122C1049.45 140.536 1051.21 145.641 1055.41 145.766V3.05574L1055.36 3.08091Z" fill="#FDFDFC"/>
<path d="M661.097 1.27075C665.321 2.42752 662.857 7.50729 662.832 10.1729C662.631 42.1602 661.7 81.5157 664.089 112.925C667.911 163.32 713.202 208.333 763.748 178.987C823.925 144.032 797.47 60.9201 804.009 5.39493C804.159 4.18787 804.562 1.27075 805.869 1.27075H838.184C838.309 1.27075 839.969 2.93044 839.969 3.05618V114.132C839.969 122.179 828.049 146.169 823.02 153.336C770.286 228.351 630.719 202.323 623.426 109.329C621.263 81.7923 619.453 34.6411 622.143 7.75871C622.319 5.9984 623.074 1.27075 625.211 1.27075C632.806 1.27075 655.715 -0.212943 661.097 1.27075Z" fill="#FDFDFC"/>
<path d="M1399.95 193.547H1355.09L1322.8 138.6L1319.25 137.343L1204.5 137.594L1172.01 192.365C1169.05 195.03 1160.07 192.868 1155.84 193.547C1155.62 190.957 1156.7 188.769 1157.76 186.506C1164.24 172.649 1177.12 152.682 1185.27 138.726C1207.5 100.653 1231.64 63.5606 1253.42 25.1859C1254.17 23.4758 1254.14 21.8664 1253.69 20.081C1253.29 18.4967 1240.11 1.24561 1246.17 1.24561H1285.65C1286.26 1.24561 1288.52 3.00591 1289.12 3.76033C1316.99 53.8034 1347.92 102.036 1376.96 151.375C1383.02 161.685 1394.32 178.257 1398.59 188.291C1399.34 190.051 1400.28 191.46 1399.92 193.522L1399.95 193.547ZM1312.61 123.084L1262.97 38.2876L1213.31 123.084H1312.61Z" fill="#FDFDFC"/>
<path d="M279.99 15.6046C280.367 16.7865 278.783 18.1948 278.783 18.5971V86.6707C278.783 86.7965 280.442 88.4562 280.568 88.4562H383.471C386.136 88.4562 386.136 102.79 383.471 102.79H279.965V179.213H393.027C394.862 179.213 396.723 193.547 394.234 193.547H241.087L241.037 2.40228C242.244 0.465942 246.644 2.72914 249.461 2.57825C296.285 -0.0119147 343.587 1.77359 390.613 1.2958C396.698 1.04432 395.592 15.6046 393.052 15.6046H279.99Z" fill="#FDFDFC"/>
<path d="M1136.71 1.27051V189.372C1136.71 189.925 1140.1 192.113 1140.3 192.968C1141.36 197.796 1135.42 193.773 1133.66 193.597C1124.96 192.742 1112.92 194.98 1105.02 193.547C1104.02 193.37 1102.03 192.591 1102.03 191.761V4.26304C1102.03 4.06186 1104.82 1.27051 1105.02 1.27051H1136.73H1136.71Z" fill="#FDFDFC"/>
<path d="M42.4737 3.66016H0L111.855 191.158L222.553 3.66016L210.483 4.41454L126.239 145.767C124.429 146.22 118.821 136.362 117.513 134.2C94.4531 96.3278 74.964 55.9916 51.9291 18.1198C48.9869 13.2916 45.1142 8.76505 42.4737 3.66016Z" fill="#FDFDFC"/>
</svg>
